ply
format ascii 1.0           
comment made by Greg Turk  
comment this file is a cube
element vertex 8           
property float x           
property float y           
property float z
property float r
property float g
property float b        
element face 6             
property list uchar int vertex_index 
end_header                 
0 0 0 0.583  0.771  0.014 
0 0 1 0.822  0.569  0.201 
0 1 1 0.327  0.483  0.844 
0 1 0 0.435  0.602  0.223 
1 0 0 0.609  0.115  0.436 
1 0 1 0.310  0.747  0.185  
1 1 1 0.559  0.436  0.730 
1 1 0 0.359  0.583  0.152 
4 0 1 2 3                  
4 7 6 5 4
4 0 4 5 1
4 1 5 6 2
4 2 6 7 3
4 3 7 4 0